<?xml version="1.0" standalone="no"?>
<!DOCTYPE svg PUBLIC "-//W3C//DTD SVG 20010904//EN"
 "http://www.w3.org/TR/2001/REC-SVG-20010904/DTD/svg10.dtd">
<svg version="1.0" xmlns="http://www.w3.org/2000/svg"
 width="358.000000pt" height="358.000000pt" viewBox="0 0 358.000000 358.000000"
 preserveAspectRatio="xMidYMid meet">
<metadata>
Created by potrace 1.11, written by Peter Selinger 2001-2013
</metadata>
<g transform="translate(0.000000,358.000000) scale(0.100000,-0.100000)"
fill="#000000" stroke="none">
<path d="M1569 3445 c-272 -37 -550 -153 -769 -319 -94 -71 -247 -228 -318
-324 -432 -586 -427 -1384 12 -1962 71 -94 228 -247 324 -318 586 -432 1384
-427 1962 12 94 71 247 228 318 324 432 586 427 1384 -12 1962 -71 94 -228
247 -324 318 -343 253 -775 364 -1193 307z m524 -319 c44 -18 664 -626 699
-685 l28 -46 0 -716 c0 -780 1 -768 -58 -869 -35 -60 -125 -154 -179 -186 -24
-14 -70 -35 -101 -47 -56 -21 -71 -22 -673 -25 -674 -3 -699 -2 -816 55 -70
34 -178 138 -215 209 -59 110 -58 90 -58 1029 0 741 2 869 15 920 45 171 186
313 358 360 75 20 952 22 1000 1z"/>
<path d="M1135 2961 c-87 -22 -167 -87 -213 -174 l-27 -52 0 -890 0 -890 28
-57 c33 -67 90 -121 166 -157 l56 -26 620 0 c725 0 687 -5 791 99 104 105 98
56 102 826 1 366 1 674 -2 686 -5 19 -16 21 -169 30 -155 9 -168 12 -229 42
-79 38 -149 110 -186 190 -25 53 -27 68 -30 220 l-4 162 -436 -1 c-241 -1
-450 -4 -467 -8z m1191 -956 c-34 -52 -707 -950 -714 -953 -8 -2 -402 651
-402 667 0 6 4 11 9 11 6 0 95 -51 200 -114 l190 -115 357 270 c196 148 360
266 366 263 5 -3 3 -16 -6 -29z"/>
</g>
</svg>
