<svg height='100px' width='100px'  fill="#000000" xmlns="http://www.w3.org/2000/svg" xmlns:xlink="http://www.w3.org/1999/xlink" version="1.1" x="0px" y="0px" viewBox="0 0 64 64" style="enable-background:new 0 0 64 64;" xml:space="preserve"><g><path d="M45.6,27.5c-0.1-0.1-0.2-0.1-0.4-0.1L28.1,40.3l-9.2-5.5c-0.1-0.1-0.2-0.1-0.4,0c-0.2,0.1-0.2,0.3-0.1,0.5l7.3,12.1l2.4,4   l3-4l14.6-19.6C45.7,27.7,45.7,27.6,45.6,27.5z"></path><g><g><g><g><path d="M6.6,12.8v38.4c0,6.6,5.4,12,12,12h26.8c6.6,0,12-5.4,12-12V20.3c0-1.5-0.6-2.9-1.7-4L41.2,2.1c-0.8-0.8-2-1.3-3.2-1.3       H18.6C12,0.8,6.6,6.2,6.6,12.8z M10.7,12.8c0-4.4,3.6-7.9,7.9-7.9H38c0.1,0,0.3,0,0.3,0.1l0.2,0.2v6.4c0.1,0.8,0.3,1.7,0.7,2.5       c1.3,3,4.2,5.1,7.4,5.5c0.4,0,0.7,0.1,1.1,0.1l5.5,0.2c0.1,0.2,0.1,0.4,0.1,0.6v30.9c0,4.4-3.6,7.9-7.9,7.9H18.6       c-4.4,0-7.9-3.6-7.9-7.9V12.8z"></path></g></g></g></g></g></svg>