<svg height='100px' width='100px'  fill="#000000" xmlns="http://www.w3.org/2000/svg" xmlns:xlink="http://www.w3.org/1999/xlink" version="1.1" x="0px" y="0px" viewBox="0 0 66 66" enable-background="new 0 0 66 66" xml:space="preserve"><g><polygon points="9.5,17.5 2.6,24.4 9.6,31.3  "></polygon><polygon points="9.9,34.6 9.9,34.6 2.1,27 2.4,63.5 20.5,45.1  "></polygon><path d="M33.1,54.5l21-21.4L53.9,3.9c0-1.6-1.3-2.9-3-2.9L14.4,1.3c-1.6,0-2.9,1.3-2.9,3l0.2,29.2L33.1,54.5z M46.8,32.3l-16.5,0.1   c-0.6,0-1.1-0.5-1.1-1.1c0-0.6,0.5-1.1,1.1-1.1l16.5-0.1c0.6,0,1.1,0.5,1.1,1.1C47.9,31.8,47.4,32.3,46.8,32.3z M46.7,21.3   l-16.5,0.1c-0.6,0-1.1-0.5-1.1-1.1c0-0.6,0.5-1.1,1.1-1.1l16.5-0.1c0.6,0,1.1,0.5,1.1,1.1C47.8,20.8,47.3,21.3,46.7,21.3z    M30.2,8.2l16.5-0.1c0.6,0,1.1,0.5,1.1,1.1c0,0.6-0.5,1.1-1.1,1.1l-16.5,0.1c-0.6,0-1.1-0.5-1.1-1.1C29.1,8.7,29.6,8.3,30.2,8.2z    M26.1,34.1c0,0.6-0.5,1.1-1.1,1.1l-5.3,0c-0.6,0-1.1-0.5-1.1-1.1l0-5.3c0-0.6,0.5-1.1,1.1-1.1l5.3,0c0.6,0,1.1,0.5,1.1,1.1   L26.1,34.1z M26,23c0,0.6-0.5,1.1-1.1,1.1l-5.3,0c-0.6,0-1.1-0.5-1.1-1.1l0-5.3c0-0.6,0.5-1.1,1.1-1.1l5.3,0c0.6,0,1.1,0.5,1.1,1.1   L26,23z M19.5,5.7l5.3,0c0.6,0,1.1,0.5,1.1,1.1l0,5.3c0,0.6-0.5,1.1-1.1,1.1l-5.3,0c-0.6,0-1.1-0.5-1.1-1.1l0-5.3   C18.5,6.2,18.9,5.7,19.5,5.7z"></path><path d="M33.8,56.7c-0.4,0.4-1.1,0.4-1.5,0L22,46.6L4,65l58.4-0.5L44,46.4L33.8,56.7z"></path><polygon points="63.1,24 56.1,17.1 56.2,31  "></polygon><polygon points="63.9,63 63.6,26.5 45.5,44.9  "></polygon></g></svg>