<svg height='100px' width='100px'  fill="#000000" xmlns:dc="http://purl.org/dc/elements/1.1/" xmlns:cc="http://creativecommons.org/ns#" xmlns:rdf="http://www.w3.org/1999/02/22-rdf-syntax-ns#" xmlns:svg="http://www.w3.org/2000/svg" xmlns="http://www.w3.org/2000/svg" xmlns:sodipodi="http://sodipodi.sourceforge.net/DTD/sodipodi-0.dtd" xmlns:inkscape="http://www.inkscape.org/namespaces/inkscape" viewBox="0 0 8.4666667 8.4666669" version="1.1" x="0px" y="0px"><svg:g><svg:path style="color:#000000;font-style:normal;font-variant:normal;font-weight:normal;font-stretch:normal;font-size:medium;line-height:normal;font-family:sans-serif;font-variant-ligatures:normal;font-variant-position:normal;font-variant-caps:normal;font-variant-numeric:normal;font-variant-alternates:normal;font-feature-settings:normal;text-indent:0;text-align:start;text-decoration:none;text-decoration-line:none;text-decoration-style:solid;text-decoration-color:#000000;letter-spacing:normal;word-spacing:normal;text-transform:none;writing-mode:lr-tb;direction:ltr;text-orientation:mixed;dominant-baseline:auto;baseline-shift:baseline;text-anchor:start;white-space:normal;shape-padding:0;clip-rule:nonzero;display:inline;overflow:visible;visibility:visible;opacity:1;isolation:auto;mix-blend-mode:normal;color-interpolation:sRGB;color-interpolation-filters:linearRGB;solid-color:#000000;solid-opacity:1;vector-effect:none;fill:#000000;fill-opacity:1;fill-rule:nonzero;stroke:none;stroke-width:0.52916664;stroke-linecap:round;stroke-linejoin:round;stroke-miterlimit:4;stroke-dasharray:none;stroke-dashoffset:0;stroke-opacity:1;color-rendering:auto;image-rendering:auto;shape-rendering:auto;text-rendering:auto;enable-background:accumulate" d="M 0.26577272,3.329628e-7 A 0.26460979,0.26460979 0 0 0 1.5592957e-4,0.26561733 V 8.2031173 A 0.26460979,0.26460979 0 0 0 0.26577272,8.4666663 H 5.7228036 a 0.26460979,0.26460979 0 0 0 0.2635488,-0.263549 v -1.923914 l -0.8221715,0.822172 -0.00103,0.001 c -0.095446,0.09575 -0.2136404,0.165888 -0.3436487,0.203088 a 0.52921958,0.52921958 0 0 1 -0.00258,5.17e-4 l -1.1678864,0.328145 a 0.52921958,0.52921958 0 0 0 -5.168e-4,0 C 3.0784369,7.7935183 2.5109181,7.2259993 2.6702772,6.6559243 a 0.52921958,0.52921958 0 0 0 0,-5.16e-4 l 0.3281452,-1.167888 a 0.52921958,0.52921958 0 0 1 5.168e-4,-0.0026 c 0.037194,-0.13001 0.1073385,-0.248198 0.2030886,-0.343648 l 0.00103,-10e-4 c 2.77e-4,-2.42e-4 2.387e-4,-7.58e-4 5.168e-4,-0.001 l 2.7827778,-2.78231 V 0.26561733 A 0.26460979,0.26460979 0 0 0 5.7228036,3.329628e-7 Z M 4.3874849,1.3037963 a 0.26460984,0.26460984 0 0 1 0.0031,0 0.26460984,0.26460984 0 1 1 -0.029456,0.528133 h -2.736266 a 0.26460984,0.26460984 0 0 1 -0.025321,-0.527616 0.26460984,0.26460984 0 0 1 0.025321,0 H 4.36113 a 0.26460984,0.26460984 0 0 1 0.026355,-5.17e-4 z m 2.9719122,0.533818 a 0.26460979,0.26460979 0 0 0 -0.1834515,0.07803 l -0.5606892,0.560689 1.2123288,1.213363 0.5612051,-0.561206 a 0.26460979,0.26460979 0 0 0 0,-0.374654 L 7.5505982,1.9156453 A 0.26460979,0.26460979 0 0 0 7.3593971,1.8376143 Z M 1.6248629,2.6716713 H 4.36113 a 0.2646485,0.2646485 0 0 1 0,0.529167 H 1.6248629 a 0.2646485,0.2646485 0 0 1 0,-0.529167 z m 4.6157383,0.179317 -2.6644362,2.664437 a 0.26460979,0.26460979 0 0 0 -0.068213,0.115239 l -0.3281455,1.167887 a 0.26460979,0.26460979 0 0 0 0.3260784,0.326078 l 1.167888,-0.328145 a 0.26460979,0.26460979 0 0 0 0.1152366,-0.06821 l 2.6649547,-2.664953 z m -4.6157383,1.188042 h 1.4045655 a 0.2646485,0.2646485 0 1 1 0,0.529166 H 1.6248629 a 0.2646485,0.2646485 0 1 1 0,-0.529166 z"></svg:path></svg:g></svg>